<svg width="72.000000" height="72.000000" viewBox="0 0 72 72" fill="none" xmlns="http://www.w3.org/2000/svg" xmlns:xlink="http://www.w3.org/1999/xlink">
	<desc>
			Created with Pixso.
	</desc>
	<defs/>
	<circle id="Ellipse 153" cx="36.000000" cy="36.000000" r="36.000000" fill="#661CE7" fill-opacity="1.000000"/>
	<path id="02" d="M24.21 47.7Q26.08 48.73 28.52 48.73Q30.97 48.73 32.83 47.69Q33.76 47.16 34.5 46.43Q35.23 45.7 35.75 44.76Q35.78 44.72 35.81 44.67Q36.81 42.83 36.81 40.44L36.81 33.02Q36.81 30.63 35.81 28.79Q35.78 28.75 35.75 28.7Q35.21 27.74 34.46 27Q33.74 26.29 32.83 25.79Q32.81 25.78 32.79 25.76Q30.94 24.73 28.52 24.73Q26.14 24.73 24.3 25.73Q24.25 25.76 24.2 25.79Q23.29 26.29 22.57 27Q21.82 27.74 21.28 28.7Q21.27 28.7 21.27 28.71Q20.24 30.58 20.24 33.02L20.24 40.44Q20.24 42.89 21.27 44.75Q21.27 44.76 21.28 44.76Q21.8 45.7 22.54 46.43Q23.27 47.16 24.2 47.69L24.21 47.7ZM40.66 44.86L40.66 48.22L56.51 48.22L56.51 44.59L46.62 44.59L52.53 39.36C53.4 38.59 54.13 37.89 54.72 37.26C55.32 36.63 55.77 35.94 56.07 35.2C56.36 34.45 56.51 33.53 56.51 32.43C56.51 30.92 56.18 29.6 55.51 28.44C54.83 27.28 53.91 26.37 52.74 25.72C51.56 25.06 50.24 24.73 48.77 24.73Q46.39 24.73 44.56 25.68C43.36 26.3 42.41 27.19 41.71 28.33Q41.69 28.37 41.66 28.42Q40.69 30.1 40.69 32.35L44.66 32.35Q44.64 31.78 44.78 31.26Q44.9 30.8 45.14 30.38C45.48 29.77 45.95 29.29 46.56 28.92Q46.71 28.83 46.86 28.76Q47.68 28.36 48.69 28.36Q49.68 28.36 50.47 28.77Q50.58 28.83 50.69 28.89C51.28 29.24 51.73 29.72 52.07 30.33C52.4 30.93 52.56 31.61 52.56 32.38C52.56 32.94 52.41 33.53 52.11 34.14Q51.67 35.05 50.51 36.08L40.66 44.86ZM30.73 44.49C30.07 44.88 29.33 45.07 28.52 45.07Q27.66 45.07 26.9 44.77Q26.6 44.66 26.32 44.49C25.65 44.1 25.13 43.57 24.75 42.92Q24.58 42.64 24.46 42.34Q24.17 41.58 24.17 40.72L24.17 32.73Q24.17 31.75 24.53 30.94Q24.63 30.72 24.75 30.52Q25.04 30.03 25.43 29.64Q25.82 29.24 26.32 28.96C26.98 28.56 27.71 28.36 28.52 28.36Q29.35 28.36 30.07 28.64Q30.41 28.77 30.73 28.96Q31.23 29.24 31.62 29.64Q32.01 30.03 32.3 30.52Q32.42 30.72 32.51 30.94Q32.88 31.75 32.88 32.73L32.88 40.72Q32.88 41.58 32.58 42.34Q32.46 42.64 32.3 42.92C31.92 43.57 31.39 44.1 30.73 44.49Z" fill="#FFFFFF" fill-opacity="1.000000" fill-rule="evenodd"/>
</svg>
