<svg width="72.000000" height="72.000000" viewBox="0 0 72 72" fill="none" xmlns="http://www.w3.org/2000/svg" xmlns:xlink="http://www.w3.org/1999/xlink">
	<desc>
			Created with Pixso.
	</desc>
	<defs/>
	<circle id="Ellipse 153" cx="36.000000" cy="36.000000" r="36.000000" fill="#661CE7" fill-opacity="1.000000"/>
	<path id="03" d="M24.21 47.7Q26.08 48.73 28.52 48.73Q30.97 48.73 32.83 47.69Q33.76 47.16 34.5 46.43Q35.23 45.7 35.75 44.76Q35.78 44.72 35.81 44.67Q36.81 42.83 36.81 40.44L36.81 33.02Q36.81 30.63 35.81 28.79Q35.78 28.75 35.75 28.7Q35.21 27.74 34.46 27Q33.74 26.29 32.83 25.79Q32.81 25.78 32.79 25.76Q30.94 24.73 28.52 24.73Q26.14 24.73 24.3 25.73Q24.25 25.76 24.2 25.79Q23.29 26.29 22.57 27Q21.82 27.74 21.28 28.7Q21.27 28.7 21.27 28.71Q20.24 30.58 20.24 33.02L20.24 40.44Q20.24 42.89 21.27 44.75Q21.27 44.76 21.28 44.76Q21.8 45.7 22.54 46.43Q23.27 47.16 24.2 47.69L24.21 47.7ZM44.63 48.01C45.65 48.46 46.74 48.68 47.89 48.68Q49.47 48.68 50.85 48.15Q51.35 47.96 51.83 47.69Q52.83 47.13 53.6 46.34Q54.21 45.72 54.67 44.96C55.39 43.8 55.75 42.5 55.75 41.05C55.75 39.77 55.48 38.59 54.95 37.52C54.42 36.44 53.67 35.56 52.67 34.88C51.95 34.37 51.12 34.03 50.17 33.85L55.36 28.86L55.36 25.21L41.23 25.21L41.23 28.84L50.77 28.84L44.11 34.54L45.87 37.58C46.18 37.41 46.5 37.28 46.83 37.18C47.17 37.08 47.52 37.04 47.87 37.04Q48.99 37.04 49.85 37.51Q50.33 37.78 50.72 38.19Q51.13 38.62 51.39 39.13Q51.83 39.98 51.83 41.05C51.83 41.8 51.65 42.48 51.31 43.08C50.97 43.68 50.5 44.16 49.91 44.51C49.31 44.86 48.63 45.04 47.87 45.04C47.02 45.05 46.24 44.81 45.52 44.32C44.82 43.81 44.33 43.1 44.07 42.19L40.34 43.2C40.67 44.32 41.21 45.29 41.95 46.11Q42.52 46.72 43.18 47.19Q43.85 47.67 44.63 48.01ZM30.73 44.49C30.07 44.88 29.33 45.07 28.52 45.07Q27.66 45.07 26.9 44.77Q26.6 44.66 26.32 44.49C25.65 44.1 25.13 43.57 24.75 42.92Q24.58 42.64 24.46 42.34Q24.17 41.58 24.17 40.72L24.17 32.73Q24.17 31.75 24.53 30.94Q24.63 30.72 24.75 30.52Q25.04 30.03 25.43 29.64Q25.82 29.24 26.32 28.96C26.98 28.56 27.71 28.36 28.52 28.36Q29.35 28.36 30.07 28.64Q30.41 28.77 30.73 28.96Q31.23 29.24 31.62 29.64Q32.01 30.03 32.3 30.52Q32.42 30.72 32.51 30.94Q32.88 31.75 32.88 32.73L32.88 40.72Q32.88 41.58 32.58 42.34Q32.46 42.64 32.3 42.92C31.92 43.57 31.39 44.1 30.73 44.49Z" fill="#FFFFFF" fill-opacity="1.000000" fill-rule="evenodd"/>
</svg>
