<svg width="130.409180" height="36.434753" viewBox="0 0 130.409 36.4348" fill="none" xmlns="http://www.w3.org/2000/svg" xmlns:xlink="http://www.w3.org/1999/xlink">
	<desc>
			Created with Pixso.
	</desc>
	<defs>
		<filter id="filter_528_550_dd" x="0.000000" y="0.000000" width="130.409180" height="36.434753" filterUnits="userSpaceOnUse" color-interpolation-filters="sRGB">
			<feFlood flood-opacity="0" result="BackgroundImageFix"/>
			<feColorMatrix in="SourceAlpha" type="matrix" values="0 0 0 0 0 0 0 0 0 0 0 0 0 0 0 0 0 0 127 0" result="hardAlpha"/>
			<feOffset dx="0" dy="4"/>
			<feGaussianBlur stdDeviation="1.33333"/>
			<feComposite in2="hardAlpha" operator="out" k2="-1" k3="1"/>
			<feColorMatrix type="matrix" values="0 0 0 0 0 0 0 0 0 0 0 0 0 0 0 0 0 0 0.25 0"/>
			<feBlend mode="normal" in2="BackgroundImageFix" result="effect_dropShadow_1"/>
			<feBlend mode="normal" in="SourceGraphic" in2="effect_dropShadow_1" result="shape"/>
		</filter>
	</defs>
	<g filter="url(#filter_528_550_dd)">
		<path id="Logo" d="M6.4 5.16L6.4 10.76C6.4 11.68 6.4 12.71 4.5 12.71L4.5 14.22L4.5 14.24L4.5 15.72C6.4 15.72 6.4 16.75 6.4 17.67L6.4 23.27C6.4 27.61 8.78 27.93 12.83 27.93L12.83 24.55C10.93 24.55 10.21 24.27 10.21 23.18L10.21 17.64C10.21 16.36 10.3 15.02 9.18 14.21C10.3 13.4 10.21 12.07 10.21 10.79L10.21 5.24C10.21 4.16 10.93 3.88 12.83 3.88L12.83 0.5C8.78 0.49 6.4 0.81 6.4 5.16ZM17.12 4.98C16.08 5.86 15.56 7.12 15.56 8.76L15.56 10.24L13.38 10.24L13.38 13.33L15.56 13.33L15.56 24.53L20.28 24.53L20.28 13.33L23.21 13.33L23.21 10.24L20.28 10.24L20.28 9.19C20.28 8.65 20.44 8.24 20.76 7.95C21.07 7.66 21.52 7.51 22.11 7.51C22.4 7.51 23.86 7.52 23.86 7.52L23.86 3.93C23.86 3.93 21.24 3.9 20.87 3.9C19.73 3.9 18.16 4.09 17.12 4.98ZM25.94 7.5L30.67 7.5L30.67 3.93L25.94 3.93L25.94 7.5ZM25.94 24.53L30.67 24.53L30.67 10.24L25.94 10.24L25.94 24.53ZM42.33 9.98C41.43 9.98 40.62 10.18 39.9 10.58C39.18 10.98 38.57 11.54 38.07 12.25L37.89 10.24L33.47 10.24L33.47 24.53L38.17 24.53L38.17 14.26C38.41 13.99 38.7 13.79 39.04 13.64C39.38 13.49 39.77 13.41 40.21 13.41C40.9 13.41 41.43 13.58 41.79 13.92C42.15 14.26 42.33 14.84 42.33 15.66L42.33 24.53L47.04 24.53L47.04 15.67C47.04 13.69 46.62 12.25 45.79 11.34C44.96 10.43 43.8 9.98 42.33 9.98ZM61.29 17.49C60.4 16.81 59.04 16.29 57.2 15.95C56.03 15.74 55.25 15.5 54.86 15.23C54.48 14.97 54.28 14.65 54.28 14.27C54.28 13.87 54.45 13.55 54.79 13.29C55.12 13.04 55.53 12.91 56.03 12.91C56.7 12.91 57.18 13.06 57.48 13.35C57.79 13.64 57.94 14.06 57.94 14.63L62.51 14.63L62.54 14.55C62.6 13.2 62.03 12.1 60.84 11.25C59.65 10.4 58.05 9.98 56.04 9.98C54.14 9.98 52.63 10.42 51.51 11.29C50.39 12.17 49.84 13.24 49.84 14.49C49.84 15.68 50.28 16.62 51.17 17.31C52.07 17.99 53.39 18.5 55.15 18.83C56.26 19.05 57.03 19.29 57.46 19.57C57.88 19.85 58.09 20.17 58.09 20.52C58.09 20.95 57.93 21.28 57.6 21.51C57.28 21.75 56.8 21.86 56.17 21.86C55.4 21.86 54.82 21.71 54.4 21.41C53.99 21.12 53.77 20.63 53.76 19.95L49.49 19.95L49.46 20.03C49.41 21.24 49.97 22.34 51.17 23.33C52.36 24.32 53.99 24.81 56.04 24.81C58.02 24.81 59.61 24.39 60.82 23.56C62.02 22.73 62.62 21.67 62.62 20.38C62.62 19.13 62.18 18.17 61.29 17.49ZM78.11 18.52L78.03 18.52L75.55 10.24L72.58 10.24L70.13 18.59L70.04 18.59L68.38 10.24L64.03 10.24L67.59 24.53L71.56 24.53L74.03 16.95L74.11 16.95L76.57 24.53L80.56 24.53L84.1 10.24L79.75 10.24L78.11 18.52ZM92.1 9.98C89.86 9.97 88.13 10.66 86.93 12.03C85.73 13.41 85.13 15.19 85.13 17.36L85.13 17.86C85.13 19.85 85.79 21.51 87.11 22.83C88.44 24.15 90.21 24.81 92.43 24.81C93.63 24.81 94.75 24.66 95.8 24.35C96.84 24.05 97.7 23.67 98.36 23.21L97.24 20.49C96.42 20.82 95.75 21.05 95.21 21.18C94.68 21.31 93.96 21.38 93.07 21.38C92.19 21.38 91.48 21.14 90.95 20.67C90.42 20.2 90.11 19.6 90 18.87L90.03 18.79L98.65 18.79L98.65 16.45C98.65 14.46 98.07 12.89 96.91 11.72C95.75 10.56 94.14 9.98 92.1 9.98ZM94.05 16L89.99 16L89.95 15.94C90.03 15.17 90.23 14.56 90.57 14.1C90.91 13.64 91.42 13.41 92.1 13.41C92.77 13.41 93.26 13.61 93.58 14C93.89 14.38 94.05 14.94 94.05 15.66L94.05 16ZM107.91 9.98C105.67 9.97 103.95 10.66 102.75 12.03C101.54 13.41 100.94 15.19 100.94 17.36L100.94 17.86C100.94 19.85 101.6 21.51 102.93 22.83C104.25 24.15 106.03 24.81 108.25 24.81C109.45 24.81 110.57 24.66 111.62 24.35C112.66 24.05 113.51 23.67 114.17 23.21L113.06 20.49C112.24 20.82 111.56 21.05 111.03 21.18C110.49 21.31 109.78 21.38 108.89 21.38C108.01 21.38 107.3 21.14 106.77 20.67C106.24 20.2 105.92 19.6 105.82 18.87L105.85 18.79L114.47 18.79L114.47 16.45C114.47 14.46 113.88 12.89 112.72 11.72C111.56 10.56 109.96 9.98 107.91 9.98ZM109.86 16L105.81 16L105.77 15.94C105.84 15.17 106.05 14.56 106.39 14.1C106.72 13.64 107.23 13.41 107.91 13.41C108.58 13.41 109.08 13.61 109.39 14C109.71 14.38 109.87 14.94 109.87 15.66L109.87 16L109.86 16L109.86 16ZM124.15 20.83C123.56 20.83 123.11 20.68 122.79 20.39C122.48 20.1 122.32 19.69 122.32 19.15L122.32 13.36L124.77 13.36L124.77 10.27L122.32 10.27L122.32 3.91L117.59 3.91L117.59 10.27L115.42 10.27L115.42 13.36L117.59 13.36L117.59 19.57C117.59 21.22 118.11 22.48 119.16 23.36C120.2 24.24 121.76 24.44 122.91 24.44C123.28 24.44 125.9 24.41 125.9 24.41L125.9 20.82C125.9 20.82 124.44 20.83 124.15 20.83Z" fill="#1E1B1B" fill-opacity="1.000000" fill-rule="nonzero"/>
		<path id="Logo" d="M6.4 10.76C6.4 11.68 6.4 12.71 4.5 12.71L4.5 14.22L4.5 14.24L4.5 15.72C6.4 15.72 6.4 16.75 6.4 17.67L6.4 23.27C6.4 27.61 8.78 27.93 12.83 27.93L12.83 24.55C10.93 24.55 10.21 24.27 10.21 23.18L10.21 17.64C10.21 16.36 10.3 15.02 9.18 14.21C10.3 13.4 10.21 12.07 10.21 10.79L10.21 5.24C10.21 4.16 10.93 3.88 12.83 3.88L12.83 0.5C8.78 0.49 6.4 0.81 6.4 5.16L6.4 10.76ZM15.56 8.76L15.56 10.24L13.38 10.24L13.38 13.33L15.56 13.33L15.56 24.53L20.28 24.53L20.28 13.33L23.21 13.33L23.21 10.24L20.28 10.24L20.28 9.19C20.28 8.65 20.44 8.24 20.76 7.95C21.07 7.66 21.52 7.51 22.11 7.51C22.4 7.51 23.86 7.52 23.86 7.52L23.86 3.93C23.86 3.93 21.24 3.9 20.87 3.9C19.73 3.9 18.16 4.09 17.12 4.98C16.08 5.86 15.56 7.12 15.56 8.76ZM30.67 7.5L30.67 3.93L25.94 3.93L25.94 7.5L30.67 7.5ZM30.67 24.53L30.67 10.24L25.94 10.24L25.94 24.53L30.67 24.53ZM39.9 10.58C39.18 10.98 38.57 11.54 38.07 12.25L37.89 10.24L33.47 10.24L33.47 24.53L38.17 24.53L38.17 14.26C38.41 13.99 38.7 13.79 39.04 13.64C39.38 13.49 39.77 13.41 40.21 13.41C40.9 13.41 41.43 13.58 41.79 13.92C42.15 14.26 42.33 14.84 42.33 15.66L42.33 24.53L47.04 24.53L47.04 15.67C47.04 13.69 46.62 12.25 45.79 11.34C44.96 10.43 43.8 9.98 42.33 9.98C41.43 9.98 40.62 10.18 39.9 10.58ZM57.2 15.95C56.03 15.74 55.25 15.5 54.86 15.23C54.48 14.97 54.28 14.65 54.28 14.27C54.28 13.87 54.45 13.55 54.79 13.29C55.12 13.04 55.53 12.91 56.03 12.91C56.7 12.91 57.18 13.06 57.48 13.35C57.79 13.64 57.94 14.06 57.94 14.63L62.51 14.63L62.54 14.55C62.6 13.2 62.03 12.1 60.84 11.25C59.65 10.4 58.05 9.98 56.04 9.98C54.14 9.98 52.63 10.42 51.51 11.29C50.39 12.17 49.84 13.24 49.84 14.49C49.84 15.68 50.28 16.62 51.17 17.31C52.07 17.99 53.39 18.5 55.15 18.83C56.26 19.05 57.03 19.29 57.46 19.57C57.88 19.85 58.09 20.17 58.09 20.52C58.09 20.95 57.93 21.28 57.6 21.51C57.28 21.75 56.8 21.86 56.17 21.86C55.4 21.86 54.82 21.71 54.4 21.41C53.99 21.12 53.77 20.63 53.76 19.95L49.49 19.95L49.46 20.03C49.41 21.24 49.97 22.34 51.17 23.33C52.36 24.32 53.99 24.81 56.04 24.81C58.02 24.81 59.61 24.39 60.82 23.56C62.02 22.73 62.62 21.67 62.62 20.38C62.62 19.13 62.18 18.17 61.29 17.49C60.4 16.81 59.04 16.29 57.2 15.95ZM78.03 18.52L75.55 10.24L72.58 10.24L70.13 18.59L70.04 18.59L68.38 10.24L64.03 10.24L67.59 24.53L71.56 24.53L74.03 16.95L74.11 16.95L76.57 24.53L80.56 24.53L84.1 10.24L79.75 10.24L78.11 18.52L78.03 18.52ZM86.93 12.03C85.73 13.41 85.13 15.19 85.13 17.36L85.13 17.86C85.13 19.85 85.79 21.51 87.11 22.83C88.44 24.15 90.21 24.81 92.43 24.81C93.63 24.81 94.75 24.66 95.8 24.35C96.84 24.05 97.7 23.67 98.36 23.21L97.24 20.49C96.42 20.82 95.75 21.05 95.21 21.18C94.68 21.31 93.96 21.38 93.07 21.38C92.19 21.38 91.48 21.14 90.95 20.67C90.42 20.2 90.11 19.6 90 18.87L90.03 18.79L98.65 18.79L98.65 16.45C98.65 14.46 98.07 12.89 96.91 11.72C95.75 10.56 94.14 9.98 92.1 9.98C89.86 9.97 88.13 10.66 86.93 12.03ZM89.99 16L89.95 15.94C90.03 15.17 90.23 14.56 90.57 14.1C90.91 13.64 91.42 13.41 92.1 13.41C92.77 13.41 93.26 13.61 93.58 14C93.89 14.38 94.05 14.94 94.05 15.66L94.05 16L89.99 16ZM102.75 12.03C101.54 13.41 100.94 15.19 100.94 17.36L100.94 17.86C100.94 19.85 101.6 21.51 102.93 22.83C104.25 24.15 106.03 24.81 108.25 24.81C109.45 24.81 110.57 24.66 111.62 24.35C112.66 24.05 113.51 23.67 114.17 23.21L113.06 20.49C112.24 20.82 111.56 21.05 111.03 21.18C110.49 21.31 109.78 21.38 108.89 21.38C108.01 21.38 107.3 21.14 106.77 20.67C106.24 20.2 105.92 19.6 105.82 18.87L105.85 18.79L114.47 18.79L114.47 16.45C114.47 14.46 113.88 12.89 112.72 11.72C111.56 10.56 109.96 9.98 107.91 9.98C105.67 9.97 103.95 10.66 102.75 12.03ZM105.81 16L105.77 15.94C105.84 15.17 106.05 14.56 106.39 14.1C106.72 13.64 107.23 13.41 107.91 13.41C108.58 13.41 109.08 13.61 109.39 14C109.71 14.38 109.87 14.94 109.87 15.66L109.87 16L109.86 16L109.86 16L105.81 16ZM122.79 20.39C122.48 20.1 122.32 19.69 122.32 19.15L122.32 13.36L124.77 13.36L124.77 10.27L122.32 10.27L122.32 3.91L117.59 3.91L117.59 10.27L115.42 10.27L115.42 13.36L117.59 13.36L117.59 19.57C117.59 21.22 118.11 22.48 119.16 23.36C120.2 24.24 121.76 24.44 122.91 24.44C123.28 24.44 125.9 24.41 125.9 24.41L125.9 20.82C125.9 20.82 124.44 20.83 124.15 20.83C123.56 20.83 123.11 20.68 122.79 20.39Z" stroke="#000000" stroke-opacity="1.000000" stroke-width="1.000000"/>
	</g>
</svg>
